<svg xmlns="http://www.w3.org/2000/svg" viewBox="0 0 1105.08 927.83"><defs><style>.cls-1{opacity:0.7;}.cls-2{fill:#125499;}</style></defs><title>a</title><g id="Capa_2" data-name="Capa 2"><g id="Capa_1-2" data-name="Capa 1"><g class="cls-1"><path class="cls-2" d="M810,478.26l38.5-48.07-32.92,62.26L499.78,311.29,537.47,245Z"/><path class="cls-2" d="M531.72,222.31,574.5,178.6,814.2,444.49,830,431.16,807.94,458.7Z"/><path class="cls-2" d="M732.73,257.06a64,64,0,1,0,7.14-90.23l-.29.25a63.39,63.39,0,0,0-7.4,89.35l.55.63Zm19.62-55,1.51-.86a6.31,6.31,0,1,1,6.38,10.88l-1.53.88a6.54,6.54,0,0,0-2.37,8.95v0l5.81,9.92a6.55,6.55,0,0,0,12.19-2.71l1-30.88a19.31,19.31,0,0,1,9.42-15.17l4.21-2.47a19.22,19.22,0,0,1,21.81,1.7,19,19,0,0,1,4.3,5l6-3.48a6.3,6.3,0,0,1,6.37,10.87l-6,3.52a19,19,0,0,1-7.24,25.39L808.45,227a6.3,6.3,0,0,1-6.61-10.73l.23-.14,5.71-3.34a6.56,6.56,0,0,0,2.35-9h0l-5.8-9.91a6.58,6.58,0,0,0-9-2.35l-4.2,2.46a6.56,6.56,0,0,0-3.22,5.06l-1,30.88a19.11,19.11,0,0,1-35.1,9.06l-6,3.52a6.31,6.31,0,0,1-6.37-10.88l5.95-3.48a19.12,19.12,0,0,1,6.93-26Z"/><path class="cls-2" d="M835.21,327.35a21.51,21.51,0,0,0,2.56,2.49,20.12,20.12,0,0,0,11.35,4.46A20.57,20.57,0,0,0,871,315.35a20.2,20.2,0,0,0-18.58-21.72l-.19,0a20.57,20.57,0,0,0-21.92,18.95A20.12,20.12,0,0,0,835.21,327.35Z"/><path class="cls-2" d="M815.77,426l172.8-146L756.33,0,571.46,155Zm13.44-137A33,33,0,1,1,817.8,311.6,33,33,0,0,1,829.21,289ZM731.37,157.5a76.64,76.64,0,0,1,98.23-1.64,75.53,75.53,0,0,1,9.55,9.29,76.6,76.6,0,1,1-108.08-7.37l.29-.25ZM699.25,90.74A32.77,32.77,0,0,1,717.65,98a33.33,33.33,0,0,1,4.17,4.06,33,33,0,1,1-22.57-11.3Z"/><path class="cls-2" d="M681.25,137.08a19.43,19.43,0,0,0,2.56,2.49A20,20,0,0,0,695.16,144a20.56,20.56,0,0,0,21.92-19,20.21,20.21,0,0,0-18.58-21.72h-.19a20.57,20.57,0,0,0-21.92,19A20.08,20.08,0,0,0,681.25,137.08Z"/></g><path d="M1093.48,354.83H938.7a11.62,11.62,0,0,0-11.62,11.62V487.83h178V366.45A11.61,11.61,0,0,0,1093.48,354.83Zm-133.4,85.49a11,11,0,0,1-11,11v-60a11,11,0,0,1,11,11Z"/><path d="M938.71,694.83h154.75a11.63,11.63,0,0,0,11.62-11.63V503.83h-178V683.2A11.63,11.63,0,0,0,938.71,694.83Zm132.37-88.21a6.51,6.51,0,0,1,7.32-6.45,6.66,6.66,0,0,1,5.68,6.7v10.26a6.65,6.65,0,0,1-5.68,6.69,6.5,6.5,0,0,1-7.32-6.45Zm0,31.4a6.5,6.5,0,0,1,7.32-6.45,6.65,6.65,0,0,1,5.68,6.69v28.12a6.65,6.65,0,0,1-5.68,6.69,6.5,6.5,0,0,1-7.32-6.45Zm-122-106.41a11,11,0,0,1,11,11v38a11,11,0,0,1-11,11Z"/><path d="M1086.08,699.83h-138a1,1,0,0,0-1,1v14a1,1,0,0,0,1,1h14l.27,0,25.75-7h53.13l27.39,7,.24,0h17.25a1,1,0,0,0,1-1v-14A1,1,0,0,0,1086.08,699.83Z"/><path d="M442.92,863.83H916.25a10.8,10.8,0,0,0,9.15-5.07,10.57,10.57,0,0,0,.47-10.37l-32.79-61.75V586.49c0-23.53-17.65-42.66-41.38-42.66H507.47c-23.74,0-41.39,19.13-41.39,42.66V786.64L433.3,848.39a10.57,10.57,0,0,0,.47,10.37A10.79,10.79,0,0,0,442.92,863.83Zm66.16-277h341v192h-341Z"/><path d="M933.44,889.38a10.77,10.77,0,0,0-8.79-4.55H742a10.64,10.64,0,0,0-7.6,3.22L730,892.58a10.73,10.73,0,0,1-7.7,3.25H636.48a10.75,10.75,0,0,1-7.7-3.25l-4.43-4.53a10.64,10.64,0,0,0-7.6-3.22H434.14A10.75,10.75,0,0,0,424,899.18a43,43,0,0,0,40.41,28.65h430a43,43,0,0,0,40.4-28.65A10.79,10.79,0,0,0,933.44,889.38Z"/><path d="M390.77,458.83,375.64,179l-58-18.81-7.36,18.42a8.13,8.13,0,0,1,.47,2.22l15.87,293.65a8,8,0,0,1-7.93,8.37h-46.6v-16h31.56L288.39,184.75l-58.47-19-22.41,56a8,8,0,0,1-5.39,4.76,7.49,7.49,0,0,1-2,.28,8,8,0,0,1-5-1.76l-27-21.6V466.83h-16V203.47l-27,21.6a7.9,7.9,0,0,1-7,1.49,8,8,0,0,1-5.39-4.76L90.19,165.65,31.77,184.74,16.53,466.83H48.08v32h223v-8h80v-16H335.22a8,8,0,0,1-8.13-8.32l8-200,16,.64-7.67,191.68Zm-110.69-24h16v16h-16Zm-240,16h-16v-16h16Zm23.19,16L55.61,275.15l16-.64,7.7,192.32Zm72.81-32h-16v-16h16Zm0-80h-16v-16h16Zm0-80h-16v-16h16Zm119.85,192h-16l7.7-192.32,16,.64Zm111.15-40h16v16h-16Z"/><path d="M415,74.83h26.27a32,32,0,0,0,30.82,24,8,8,0,0,0,8-8v-48a8,8,0,0,0-8-8,32,32,0,0,0-30.82,24H415a32,32,0,0,0-30.87-24h-24v16h24a16,16,0,0,1,13.78,8H287a32,32,0,0,0-30.87-24h-24v16h24a16,16,0,0,1,13.78,8H199a32,32,0,0,0-30.87-24h-24v16h24a16,16,0,0,1,13.78,8H39a32,32,0,0,0-30.82-24,8,8,0,0,0-8,8v48a8,8,0,0,0,8.05,8A32,32,0,0,0,39,74.83H181.86a16,16,0,0,1-13.78,8h-8a8,8,0,0,0-8,8v42L99,144.6l24.51,61.25,36.57-28.35,36.58,28.34,24.5-61.25L168.08,132.8v-34a32,32,0,0,0,30.87-24h70.91a16,16,0,0,1-13.78,8h-8a8,8,0,0,0-8,8v33.76L225,127.93l9.52,20.33,61.79,20L309.1,136.4l-53-11.78V98.83a32,32,0,0,0,30.87-24H397.86a16,16,0,0,1-13.78,8h-8a8,8,0,0,0-8,8v25.58L338.35,123l3.47,15.61L376.08,131l66.55,14.79,16.51,33H384.08v16h12.15l11.85,168h32v-168h32a8,8,0,0,0,7.16-11.58l-24-48a8,8,0,0,0-5.42-4.23l-65.74-14.61V98.83a32,32,0,0,0,30.87-24Z"/><g class="cls-1"><path class="cls-2" d="M497.84,585.57l0,0-208.7-209a47,47,0,0,0-66.61,0L13.89,585.43l-.21.21a47.27,47.27,0,0,0,.09,66.61A46.78,46.78,0,0,0,45,666a14.08,14.08,0,0,0,1.45.07h8.32V866.75a8.32,8.32,0,0,0,8.32,8.32H191.79a15,15,0,0,0,15-15V739.24A25.17,25.17,0,0,1,232,714.07h48.67a25.16,25.16,0,0,1,25.16,25.17V860.07a15,15,0,0,0,15,15H448.47a8.31,8.31,0,0,0,8.32-8.32V666.07h7.72a46.76,46.76,0,0,0,33.3-13.81A47.3,47.3,0,0,0,497.84,585.57Z"/></g></g></g></svg>