<svg xmlns="http://www.w3.org/2000/svg" viewBox="0 0 871.8 818.23"><defs><style>.cls-1{opacity:0.7;}.cls-2{fill:#125499;}.cls-3{fill-rule:evenodd;}</style></defs><title>b</title><g id="Capa_2" data-name="Capa 2"><g id="Capa_1-2" data-name="Capa 1"><g id="solid"><circle cx="723.22" cy="482.5" r="8"/><path d="M688.5,490.13a8,8,0,0,1,5.21,10,7.84,7.84,0,0,1-.78,1.72,6.45,6.45,0,0,0-.43,5.6c2.08,5.41,7.73,6.93,11.81,4.55a5.86,5.86,0,0,1,3.2-.84,8.32,8.32,0,0,1,7.78,5.72,8,8,0,0,0,10.07,5.2,7.62,7.62,0,0,0,1.22-.5l0,0a7.94,7.94,0,0,0,3.94-4.69,8,8,0,0,1,10-5.21,8.13,8.13,0,0,1,1.73.78,6.42,6.42,0,0,0,5.59.43c5.41-2.07,6.93-7.72,4.56-11.8a5.82,5.82,0,0,1-.84-3.09,8.28,8.28,0,0,1,6.1-8,6.76,6.76,0,0,0,4.47-3.92A8.16,8.16,0,0,0,757,474.78a6.73,6.73,0,0,1-3.72-2.69,8.17,8.17,0,0,1-.46-8.89,6.73,6.73,0,0,0,.39-5.93,8.16,8.16,0,0,0-11.47-4.45,7,7,0,0,1-4,.92,8.18,8.18,0,0,1-7.3-6.05,6.75,6.75,0,0,0-3.92-4.46,8.14,8.14,0,0,0-11.31,5.15,6.81,6.81,0,0,1-2.69,3.72,8.14,8.14,0,0,1-8.89.47,6.8,6.8,0,0,0-6-.38,8.15,8.15,0,0,0-4.43,11.47,7,7,0,0,1,.92,4A8.22,8.22,0,0,1,688.1,475a6.83,6.83,0,0,0-4.56,4.17,8.14,8.14,0,0,0,5,11Zm34.72-31.63a24,24,0,1,1-24,24A24,24,0,0,1,723.22,458.5Z"/><path d="M742.44,528.9c-.36.49-.75,1-1.15,1.42l16.17,26.54,1.73-5.77a8,8,0,0,1,9.13-5.56l5.92,1.1-13.72-22.51A23.89,23.89,0,0,1,742.44,528.9Z"/><path d="M819.5,778.23h-280v24a16,16,0,0,0,16,16H823.8a31.67,31.67,0,0,1-4.3-16Z"/><path d="M688.89,551.76l3,8.32,16.34-26.82A23.35,23.35,0,0,1,704,528.9a23.87,23.87,0,0,1-18.08-4.78l-14.36,23.57,8.77-1.14A8,8,0,0,1,688.89,551.76Z"/><path d="M587.5,410.23v352h240a8,8,0,0,1,8,8v31.58a16.27,16.27,0,0,0,14.18,16.32,16,16,0,0,0,17.82-15.9v-392a31.77,31.77,0,0,1,4.3-16H603.5A16,16,0,0,0,587.5,410.23Zm151.72,320H707.47a8.15,8.15,0,0,1-8.16-6.81,8,8,0,0,1,7.91-9.19H739a8.16,8.16,0,0,1,8.17,6.81A8,8,0,0,1,739.22,730.23Zm24-32H683.47a8.15,8.15,0,0,1-8.16-6.81,8,8,0,0,1,7.91-9.19H763a8.16,8.16,0,0,1,8.17,6.81A8,8,0,0,1,763.22,698.23Zm-71.75-64H723a8.16,8.16,0,0,1,8.17,6.81,8,8,0,0,1-7.92,9.19h-32a8,8,0,0,1-7.91-9.19A8.15,8.15,0,0,1,691.47,634.23Zm71.75,16H747.47a8.15,8.15,0,0,1-8.16-6.81,8,8,0,0,1,7.91-9.19H763a8.16,8.16,0,0,1,8.17,6.81A8,8,0,0,1,763.22,650.23Zm8-32H675.47a8.15,8.15,0,0,1-8.16-6.81,8,8,0,0,1,7.91-9.19H771a8.16,8.16,0,0,1,8.17,6.81A8,8,0,0,1,771.22,618.23Zm-122-64.61,27.59-45.27a23.75,23.75,0,0,1,0-6.63,24,24,0,0,1,0-38.44A24,24,0,0,1,704,436.1a24,24,0,0,1,38.44,0,24,24,0,0,1,27.18,27.18,24,24,0,0,1,0,38.44,23.8,23.8,0,0,1,0,6.69c.16.21.31.43.45.65l27.15,44.56a8,8,0,0,1-8.3,12l-16.49-3.07-4.83,16.06a8,8,0,0,1-6.65,5.63,8.72,8.72,0,0,1-1,.06,8,8,0,0,1-6.83-3.83l-25.8-42.35a24.67,24.67,0,0,1-3.53.34l-26.92,44.18a8,8,0,0,1-14.35-1.45l-6.49-18-18.95,2.47a8,8,0,0,1-7.87-12.09Z"/></g><g class="cls-1"><path class="cls-2" d="M548.72,596.87h-61A34.82,34.82,0,0,0,463.28,607l-35.94,35.94H547.5c1-10.82,1.71-22.47,1.71-34.54C549.21,604.36,548.93,600.67,548.72,596.87Z"/><polygon class="cls-2" points="172.54 596.87 210.92 642.92 338.28 642.92 376.66 596.87 172.54 596.87"/><path class="cls-2" d="M85.92,607a34.78,34.78,0,0,0-24.4-10.11H.48c-.2,3.8-.48,7.49-.48,11.51,0,12.07.69,23.72,1.7,34.54H121.86Z"/><path class="cls-2" d="M390.59,660.78A11.43,11.43,0,0,1,391.7,646L446.63,591a56.55,56.55,0,0,1,40.23-16.65H544.7c-6.05-31.63-21.71-52.89-48.67-67C464.67,491,394.29,483.37,274.6,483.37S84.53,491,53.17,507.42c-27,14.08-42.62,35.34-48.67,67H62.34A56.55,56.55,0,0,1,102.57,591l54.7,54.7a11.65,11.65,0,0,1,3.27,10.87,11.43,11.43,0,0,1-11.09,8.8H4.92C8.17,687,12,701.87,12.27,702.91a11.48,11.48,0,0,0,11.12,8.54h100l43.29,21.3a11.53,11.53,0,0,0,5.09,1.19H377.4a11.72,11.72,0,0,0,5.12-1.19l43.29-21.3h100a11.5,11.5,0,0,0,11.12-8.54c.27-1,4.09-15.89,7.34-37.5H400.06A11.63,11.63,0,0,1,390.59,660.78Zm-39,.53a11.4,11.4,0,0,1-8.73,4.1H206.34a11.4,11.4,0,0,1-8.74-4.1L140.71,593a11.37,11.37,0,0,1,8.74-18.65H399.76A11.37,11.37,0,0,1,408.49,593Z"/><path class="cls-2" d="M502.11,509.4c-13-29.41-56.5-126.35-71.62-139-18.85-15.76-72.83-25.16-144.47-25.16H263.18c-71.64,0-125.62,9.4-144.47,25.14C103.59,383,60.07,480,47.1,509.38A11.21,11.21,0,0,0,53,524.18a11.49,11.49,0,0,0,15-5.83C93.86,459.91,125.41,395,133.52,387.53c8.79-7.35,46-19.81,129.66-19.81H286c83.66,0,120.87,12.46,129.62,19.76,8.16,7.49,39.7,72.41,65.5,130.87a11.44,11.44,0,0,0,10.48,6.77,11.56,11.56,0,0,0,4.55-.92A11.22,11.22,0,0,0,502.11,509.4Z"/><path class="cls-2" d="M158.7,704.41c-9.87-8.88-20.42-2.9-21.34,5.92l-91.89-9.16v-.92a11.52,11.52,0,0,0-10.23-11.6A11.33,11.33,0,0,0,23,700v45.69A34.27,34.27,0,0,0,57.25,780h90.88a11.92,11.92,0,0,0,11.92-11.92v-60.6A4.1,4.1,0,0,0,158.7,704.41Z"/><path class="cls-2" d="M512.94,688.65a11.52,11.52,0,0,0-10.23,11.6v.92l-91.89,9.16a11.32,11.32,0,0,0-13.13-10.15,11.65,11.65,0,0,0-9.56,11.6v33.94A34.27,34.27,0,0,0,422.4,780h68.53a34.26,34.26,0,0,0,34.27-34.26V700A11.33,11.33,0,0,0,512.94,688.65Z"/></g><path class="cls-3" d="M612.34,324,578,178c-9.25-39.33-45.5-79.77-100.7-79.77h-239c-40.4,0-88.07,26-100.71,79.77L103.24,324a63.18,63.18,0,0,0,61.52,77.64,49.8,49.8,0,0,0,42.51-24.07l26.47-44.1a25.29,25.29,0,0,1,21.59-12.23H460.24a25.31,25.31,0,0,1,21.6,12.24l26.46,44.09a49.84,49.84,0,0,0,42.54,24.07A63.19,63.19,0,0,0,612.34,324Zm-319.1-99.76H276.5V241a15.26,15.26,0,0,1-13.29,15.3,15,15,0,0,1-16.71-14.9V224.23H229.75a15.24,15.24,0,0,1-15.29-13.3,15,15,0,0,1,14.9-16.7H246.5V177.49a15.25,15.25,0,0,1,13.29-15.3A15,15,0,0,1,276.5,177.1v17.13h17.13a15,15,0,0,1,14.91,16.7A15.26,15.26,0,0,1,293.24,224.23Zm128.81.14a15,15,0,1,1,15-15A15,15,0,0,1,422.05,224.37Zm32.13,32.13a15,15,0,1,1,15-15A15,15,0,0,1,454.18,256.5Zm0-64.26a15,15,0,1,1,15-15A15,15,0,0,1,454.18,192.24Zm32.13,32.13a15,15,0,1,1,15-15A15,15,0,0,1,486.31,224.37Z"/><g class="cls-1"><polygon class="cls-2" points="766.48 89.99 694.2 311.38 859.64 92.71 766.48 89.99"/><polygon class="cls-2" points="560.33 4.88 507.95 68.38 593.77 70.88 560.33 4.88"/><polygon class="cls-2" points="810.72 12.2 773.48 76.14 859.31 78.64 810.72 12.2"/><polygon class="cls-2" points="599.95 85.12 506.79 82.39 659.18 310.36 599.95 85.12"/><polygon class="cls-2" points="701.47 3.76 760.86 71.31 798.54 6.6 701.47 3.76"/><polygon class="cls-2" points="572.82 0 606.66 66.8 669.89 2.84 572.82 0"/><polygon class="cls-2" points="613.66 85.52 676.31 323.74 752.77 89.58 613.66 85.52"/><polygon class="cls-2" points="685.59 6.29 620.94 71.68 746.31 75.34 685.59 6.29"/></g></g></g></svg>