<svg xmlns="http://www.w3.org/2000/svg" viewBox="0 0 171.89 119.48"><defs><style>.cls-1{fill:#f2c0c0;opacity:0.58;}.cls-2{fill:#040303;}.cls-2,.cls-3,.cls-4,.cls-5,.cls-6{opacity:0.79;}.cls-3{fill:#0d0d0d;}.cls-4{fill:#111;}.cls-5{fill:#212121;}.cls-6{fill:#1e1e1e;}</style></defs><title>c</title><g id="Capa_2" data-name="Capa 2"><g id="Capa_1-2" data-name="Capa 1"><path class="cls-1" d="M79.94,26.43c8.68-5.14,17.34-3.79,26.07-1.79l.26-1.66c-2.72-.78-5.39-1.91-8.16-2.27-9-1.16-17.49,1-25.73,4.66C65,28.66,57.2,30.45,49,28.72a56.94,56.94,0,0,1-6.53-2.4c4.72-1.42,8.3-2.14,11.59-3.54,7.78-3.3,15.47-6.83,23.1-10.46,5.25-2.5,10.19-5.66,15.53-7.92C101.05.85,108.9,2,116.18,7.65c6.43,5,13,9.86,19.76,14.41,11.33,7.61,22.48,7.07,33.17-1.53a10.68,10.68,0,0,1,1.7-1c.12-.06.32,0,1.06.15-.08,1.12.23,2.53-.31,3.45C165.74,33,160.63,43.4,153.65,52.37c-8.93,11.49-17.84,11.9-29.34,3.05a127.24,127.24,0,0,1-13-11.66A57.69,57.69,0,0,0,82.09,27.44,13.48,13.48,0,0,1,79.94,26.43Z"/><path class="cls-1" d="M79.64,87.57l12.85,5.21C84.53,97.32,76,97,67.35,96c4.65,4.12,10.29,4.58,15.8,3.25,6.5-1.56,12.79-4,19.11-6.22,7.16-2.52,14.38-4.28,22-2.49,1.68.4,3.28,1.16,6.32,2.27-5,1.51-8.72,2.25-12.1,3.69-7.63,3.24-15.16,6.71-22.64,10.29-5.09,2.44-9.88,5.55-15,7.8-8.65,3.76-16.81,2.75-24.34-3.3-5.58-4.48-11.41-8.64-17.2-12.85C27.19,89.6,15.08,89.81,3,98.4A22.56,22.56,0,0,1,.92,99.63c-.12.06-.31,0-.92-.12a13.61,13.61,0,0,1,.94-3c6-10,11.15-20.51,18.2-29.62,9.05-11.69,18-12.1,29.74-3,5.59,4.35,10.8,9.2,16.18,13.82Z"/><path class="cls-2" d="M79.64,87.57,65.06,77.72c-1-5.33,1.26-9.06,5.37-12.36A144.6,144.6,0,0,0,82.07,54.43c2-2,3.58-2.43,5.81-.22,5,4.91,10.21,9.54,15.17,14.46a9.07,9.07,0,0,1,1.89,4.25,17,17,0,0,1,.07,4c0,12.4-1.26,13.47-14.35,11.79V76.08h-11Z"/><path class="cls-3" d="M96.88,48.2c.3-1.55.21-2.83.79-3.59s2-2,3-1.86,1.88,1.47,2.68,2.39a2,2,0,0,1,.14,1.46c-1.36,6.42,2.2,10.28,6.55,14.33,6.43,6,1.43,8,1.43,8-2,0-1,0-5.34-3.74-6-5.2-11.82-10.71-17.48-16.32-2.51-2.48-4.23-2.88-6.93-.15-5.48,5.56-11.3,10.78-17,16.08-1.75,1.62-3.66,4.4-6.23,1.85s.13-4.37,1.92-6c5.69-5.35,11.35-10.73,17.07-16,5.9-5.49,9.49-5.45,15.43,0C94.07,45.68,95.29,46.76,96.88,48.2Z"/><path class="cls-4" d="M42.51,17.6C52.93,11.35,83.56,1.4,88.71,2.4,73.51,8.06,61.27,22.64,42.51,17.6Z"/><path class="cls-4" d="M129.42,101.81c-14.82,5.88-29.29,12.54-45.11,14.88C99,110.59,111.16,96.45,129.42,101.81Z"/><path class="cls-5" d="M116.4,115.21l-24,4.27-.27-1.55c8-1.38,15.24-7.45,24-4.13Z"/><path class="cls-6" d="M79,1.46c-7.7,1.45-14.77,7-23.16,3.94l-.25-1.61L78.78,0Z"/></g></g></svg>