<svg xmlns="http://www.w3.org/2000/svg" viewBox="0 0 196 190"><defs><style>.cls-1{fill:#fff;stroke:#000;stroke-miterlimit:10;stroke-width:4px;}.cls-2{fill:#fbd0b4;}</style></defs><title>c_3</title><g id="Capa_2" data-name="Capa 2"><g id="Capa_1-2" data-name="Capa 1"><ellipse class="cls-1" cx="98" cy="95" rx="96" ry="93"/><path class="cls-2" d="M89.47,56.52c8.69-5.13,17.35-3.79,26.07-1.79l.27-1.65c-2.72-.78-5.4-1.92-8.17-2.28-9-1.16-17.48,1-25.73,4.66-7.4,3.29-15.17,5.09-23.34,3.35A57.64,57.64,0,0,1,52,56.41c4.72-1.41,8.3-2.14,11.59-3.53,7.78-3.31,15.47-6.83,23.1-10.47,5.25-2.49,10.19-5.65,15.53-7.92,8.32-3.54,16.17-2.4,23.45,3.26,6.43,5,13,9.86,19.76,14.4,11.33,7.61,22.48,7.07,33.17-1.53a11.49,11.49,0,0,1,1.7-1c.12-.06.32,0,1.06.16-.08,1.11.23,2.53-.3,3.44-5.83,9.85-10.94,20.27-17.92,29.24-8.93,11.49-17.83,11.91-29.34,3.06a127.24,127.24,0,0,1-13-11.66A57.71,57.71,0,0,0,91.62,57.53,14.35,14.35,0,0,1,89.47,56.52Z"/><path class="cls-2" d="M89.17,117.66,102,122.87c-8,4.55-16.44,4.2-25.13,3.18,4.65,4.12,10.28,4.58,15.79,3.26,6.5-1.56,12.79-4,19.11-6.23,7.16-2.52,14.39-4.28,22-2.49,1.68.4,3.28,1.16,6.32,2.27-5,1.51-8.71,2.26-12.1,3.69-7.63,3.24-15.16,6.71-22.64,10.3-5.09,2.44-9.88,5.54-15.05,7.79-8.65,3.76-16.81,2.75-24.34-3.3-5.58-4.47-11.41-8.63-17.2-12.85-12.06-8.79-24.17-8.59-36.26,0a18.8,18.8,0,0,1-2.07,1.23c-.11.07-.31,0-.92-.12a14,14,0,0,1,.94-3c6-9.94,11.15-20.5,18.2-29.62,9-11.69,18.06-12.09,29.74-3,5.6,4.35,10.8,9.2,16.18,13.82Z"/><path d="M89.17,117.66l-14.58-9.85c-1-5.33,1.26-9.06,5.37-12.36A144.47,144.47,0,0,0,91.6,84.53c2-2,3.58-2.44,5.81-.23,5,4.91,10.22,9.54,15.17,14.46a9.06,9.06,0,0,1,1.89,4.26,17,17,0,0,1,.07,4c0,12.4-1.26,13.47-14.35,11.78V106.17h-11Z"/><path d="M106.41,78.29c.31-1.54.21-2.83.79-3.59.71-.91,2-2,3-1.85s1.87,1.46,2.67,2.38a1.93,1.93,0,0,1,.14,1.46c-1.36,6.42,2.2,10.28,6.55,14.33C126,97,121,99,121,99c-2,0-1,0-5.34-3.74-6-5.19-11.82-10.7-17.48-16.32-2.5-2.48-4.23-2.88-6.93-.14-5.48,5.55-11.3,10.77-17,16.08-1.75,1.62-3.66,4.39-6.22,1.84s.12-4.37,1.91-6C75.6,85.32,81.26,80,87,74.63c5.9-5.49,9.49-5.45,15.43,0C103.61,75.77,104.82,76.85,106.41,78.29Z"/><path d="M52,47.69c10.42-6.25,41.05-16.2,46.2-15.2C83,38.16,70.81,52.74,52,47.69Z"/><path d="M139,131.9c-14.82,5.89-29.28,12.54-45.11,14.89C108.56,140.68,120.69,126.55,139,131.9Z"/><path d="M125.93,145.3l-24,4.28-.26-1.56c8-1.38,15.24-7.44,24-4.13Z"/><path d="M88.55,31.56c-7.7,1.45-14.77,7-23.16,3.93l-.25-1.61,23.18-3.79Z"/></g></g></svg>