<svg xmlns="http://www.w3.org/2000/svg" viewBox="0 0 107.91 82.89"><defs><style>.cls-1{fill:#fff;}</style></defs><title>icon</title><g id="Capa_2" data-name="Capa 2"><g id="Capa_1-2" data-name="Capa 1"><path class="cls-1" d="M17.27,17.66c-1.16.45-1,1.19-1,1.8q0,24.51.13,49c0,1.16,0,2.33.12,3.5.39,5.73,1.83,7.24,7.49,8,1.23.16,3.16-.38,3.07,1.55s-2,1.31-3.22,1.32c-7,0-14,0-21,0-1.11,0-2.67.34-2.82-1.25s1.4-1.43,2.52-1.6c6.81-1,8.22-2.44,8.25-9.33q.13-28.52,0-57c0-7.44-1.26-8.78-8.49-10.4C1.32,3,.09,3,0,1.73,0,0,1.43.2,2.56.2c5.68,0,11.35.13,17-.06,3-.1,3.51,2,4.36,3.94Q36,31.55,48,59c.57,1.3.62,3,2.62,3.77C54.12,54.86,57.57,47,61,39.09Q68.6,21.42,76.17,3.72a11.06,11.06,0,0,1,1.34-2.66A3.5,3.5,0,0,1,81.68.38c1.55.62.46,1.94,0,3Q65.57,41.57,49.41,79.77c-.5,1.18-.68,2.91-2.31,2.93-1.91,0-2.05-1.92-2.62-3.22Q31.91,50.59,19.36,21.71C18.75,20.31,18.63,18.55,17.27,17.66Z"/><path class="cls-1" d="M95.93,69.81c2,4.82,4.11,9.66,10.46,10.07a1.51,1.51,0,0,1,1.51,1.65c-.1,1-.93,1.29-1.83,1.29q-13.75,0-27.5,0c-.91,0-1.73-.39-1.79-1.34s.74-1.32,1.58-1.64c7.11-2.68,7.53-3.63,4.94-10.73-.12-.31-.26-.61-.39-.92-1.62-4-2.36-8.83-5.11-11.8s-8-.19-12.2-1.41c0-4.38,2.69-4.56,5.79-4.52,4.69.06,5.52-2.5,3.82-6.76-3.23-8.08-5-4,2.6-18.07"/></g></g></svg>