<?xml version="1.0" encoding="utf-8"?>
<!-- Generator: Adobe Illustrator 24.0.1, SVG Export Plug-In . SVG Version: 6.00 Build 0)  -->
<svg version="1.1" id="Capa_1" xmlns="http://www.w3.org/2000/svg" xmlns:xlink="http://www.w3.org/1999/xlink" x="0px" y="0px"
	 viewBox="0 0 403 82.9" style="enable-background:new 0 0 403 82.9;" xml:space="preserve">
<style type="text/css">
	.st0{fill:#FFFFFF;}
	.st1{font-family:'BookAntiqua-Bold';}
	.st2{font-size:26px;}
	.st3{font-family:'ArialMT';}
	.st4{font-size:14px;}
</style>
<title>logo</title>
<g id="Capa_2_1_">
	<g id="Capa_1-2">
		<path class="st0" d="M17.3,17.7c-1.2,0.5-1,1.2-1,1.8c0,16.3,0,32.7,0.1,49c0,1.2,0,2.3,0.1,3.5c0.4,5.7,1.8,7.2,7.5,8
			c1.2,0.2,3.2-0.4,3.1,1.6s-2,1.3-3.2,1.3c-7,0-14,0-21,0c-1.1,0-2.7,0.3-2.8-1.3s1.4-1.4,2.5-1.6c6.8-1,8.2-2.4,8.3-9.3
			c0.1-19,0.1-38,0-57c0-7.4-1.3-8.8-8.5-10.4C1.3,3,0.1,3,0,1.7C0,0,1.4,0.2,2.6,0.2c5.7,0,11.4,0.1,17-0.1c3-0.1,3.5,2,4.4,3.9
			C32,22.4,40,40.7,48,59c0.6,1.3,0.6,3,2.6,3.8c3.5-7.9,7-15.8,10.4-23.7c5.1-11.8,10.1-23.6,15.2-35.4c0.3-0.9,0.8-1.8,1.3-2.7
			c1.1-1.1,2.8-1.4,4.2-0.7c1.6,0.6,0.5,1.9,0,3C70.9,28.8,60.2,54.3,49.4,79.8c-0.5,1.2-0.7,2.9-2.3,2.9c-1.9,0-2-1.9-2.6-3.2
			C36.1,60.2,27.7,41,19.4,21.7C18.8,20.3,18.6,18.5,17.3,17.7z"/>
		<path class="st0" d="M95.9,69.8c2,4.8,4.1,9.7,10.5,10.1c0.8,0,1.5,0.7,1.5,1.5c0,0,0,0.1,0,0.1c-0.1,1-0.9,1.3-1.8,1.3
			c-9.2,0-18.3,0-27.5,0c-0.9,0-1.7-0.4-1.8-1.3s0.7-1.3,1.6-1.6c7.1-2.7,7.5-3.6,4.9-10.7c-0.1-0.3-0.3-0.6-0.4-0.9
			c-1.6-4-2.4-8.8-5.1-11.8s-8-0.2-12.2-1.4c0-4.4,2.7-4.6,5.8-4.5c4.7,0.1,5.5-2.5,3.8-6.8c-3.2-8.1-5-4,2.6-18.1"/>
		<text transform="matrix(1 0 0 1 109.14 33.1)" class="st0 st1 st2">MONROY ABOGADOS</text>
		<text transform="matrix(1 0 0 1 168.32 49.9)" class="st0 st3 st4">HERENCIAS Y TESTAMENTOS</text>
	</g>
</g>
</svg>
