<svg xmlns="http://www.w3.org/2000/svg" viewBox="0 0 1173.21 927.83"><defs><style>.cls-1{opacity:0.7;}.cls-2{fill:#125499;}</style></defs><title>Recurso 6</title><g id="Capa_2" data-name="Capa 2"><g id="Capa_1-2" data-name="Capa 1"><g class="cls-1"><path class="cls-2" d="M313.32,478.26l-40.88-48.07,34.95,62.26L642.61,311.29l-40-66.3Z"/><path class="cls-2" d="M608.71,222.31,563.29,178.6,308.81,444.49l-16.76-13.33,23.41,27.54Z"/><path class="cls-2" d="M395.31,257.06c-24.36,26.89-67.25,30.09-95.8,7.15s-31.94-63.35-7.58-90.24,67.25-30.09,95.79-7.14l.32.25c28.36,22.63,31.87,62.63,7.85,89.35l-.58.63Zm-20.83-55-1.6-.86a6.93,6.93,0,0,0-9.16,2.25,6.1,6.1,0,0,0,2.38,8.63l1.62.88a6.35,6.35,0,0,1,2.53,8.95l0,0-6.17,9.92a7.18,7.18,0,0,1-9.51,2.36,6.55,6.55,0,0,1-3.43-5.07l-1.05-30.88a19.2,19.2,0,0,0-10-15.17l-4.47-2.47a21.42,21.42,0,0,0-23.15,1.7,19.35,19.35,0,0,0-4.57,5l-6.32-3.48a6.9,6.9,0,0,0-9.1,2.44,6.09,6.09,0,0,0,2.33,8.43l6.38,3.52c-5.1,9-1.7,20.25,7.69,25.39l6.06,3.34a6.94,6.94,0,0,0,9.21-2.06,6.09,6.09,0,0,0-2.19-8.67l-.25-.14-6.06-3.34a6.36,6.36,0,0,1-2.5-9h0l6.17-9.91a7.22,7.22,0,0,1,9.53-2.35l4.46,2.46a6.51,6.51,0,0,1,3.41,5.06L337.76,230c.77,10.53,10.47,18.47,21.64,17.73A20.52,20.52,0,0,0,375,239l6.39,3.52a6.92,6.92,0,0,0,9.1-2.44,6.11,6.11,0,0,0-2.34-8.44l-6.31-3.48c5.56-9.11,2.27-20.74-7.36-26Z"/><path class="cls-2" d="M286.51,327.35a21.64,21.64,0,0,1-14.77,6.95c-12,.77-22.35-7.69-23.27-18.95s7.91-20.86,19.73-21.72l.2,0c12-.77,22.35,7.69,23.27,18.95A19.4,19.4,0,0,1,286.51,327.35Z"/><path class="cls-2" d="M307.14,426,123.7,280,370.26,0,566.52,155ZM292.88,289c-14.67-11.88-36.79-10.3-49.4,3.53s-10.94,34.66,3.74,46.53,36.79,10.3,49.4-3.52a31.78,31.78,0,0,0,8.37-24,32.28,32.28,0,0,0-12.1-22.55ZM396.75,157.5c-29.77-24.22-73.67-24.91-104.28-1.64a77.84,77.84,0,0,0-10.14,9.29c-29.53,31.88-26,80.27,7.82,108.08s85.21,24.52,114.74-7.36,26-80.27-7.82-108.09l-.31-.25Zm34.1-66.76A36,36,0,0,0,411.32,98a34.2,34.2,0,0,0-4.43,4.06c-12.68,13.77-11.11,34.61,3.51,46.55s36.75,10.46,49.42-3.31,11.11-34.61-3.51-46.55a36.48,36.48,0,0,0-25.46-8Z"/><path class="cls-2" d="M450,137.08a20.18,20.18,0,0,1-2.73,2.49A22,22,0,0,1,435.19,144c-12,.78-22.35-7.68-23.27-19s7.91-20.85,19.73-21.72h.2c12-.77,22.35,7.69,23.27,19A19.36,19.36,0,0,1,450,137.08Z"/></g><path d="M12.32,354.83H176.64c6.81,0,12.33,5.2,12.33,11.62V487.83H0V366.45C0,360,5.52,354.83,12.32,354.83Zm141.62,85.49c0,6.08,5.23,11,11.68,11v-60c-6.45,0-11.68,4.93-11.68,11Z"/><path d="M176.63,694.83H12.34C5.52,694.83,0,689.62,0,683.2V503.83H189V683.2C189,689.62,183.45,694.83,176.63,694.83ZM36.1,606.62a6.91,6.91,0,0,0-13.81.25v10.26a6.91,6.91,0,0,0,13.81.24Zm0,31.4a6.91,6.91,0,0,0-13.81.24v28.12a6.91,6.91,0,0,0,13.81.24ZM165.62,531.61c-6.45,0-11.68,4.92-11.68,11v38c0,6.08,5.23,11,11.68,11Z"/><path d="M20.17,699.83H166.68a1,1,0,0,1,1.06,1v14a1,1,0,0,1-1.06,1H151.85l-.28,0-27.34-7H67.82l-29.07,7-.26,0H20.17a1,1,0,0,1-1.06-1v-14A1,1,0,0,1,20.17,699.83Z"/><path d="M703,863.83H200.48a11.64,11.64,0,0,1-9.72-5.07,10,10,0,0,1-.5-10.37l34.81-61.75V586.49c0-23.53,18.74-42.66,43.93-42.66H634.46c25.19,0,43.93,19.13,43.93,42.66V786.64l34.81,61.75a10,10,0,0,1-.5,10.37A11.64,11.64,0,0,1,703,863.83Zm-70.24-277h-362v192h362Z"/><path d="M182.23,889.38a11.66,11.66,0,0,1,9.33-4.55H385.42a11.64,11.64,0,0,1,8.07,3.22l4.7,4.53a11.77,11.77,0,0,0,8.18,3.25h91.12a11.75,11.75,0,0,0,8.17-3.25l4.71-4.53a11.64,11.64,0,0,1,8.07-3.22H712.3a11.66,11.66,0,0,1,9.33,4.55,10.25,10.25,0,0,1,1.42,9.8c-6.46,17.13-23.7,28.65-42.89,28.65H223.69c-19.19,0-36.43-11.52-42.89-28.65A10.25,10.25,0,0,1,182.23,889.38Z"/><path d="M758.35,458.83,774.41,179,836,160.17l7.82,18.42a7.8,7.8,0,0,0-.5,2.22L826.46,474.46a7.71,7.71,0,0,0,2.3,5.89,8.72,8.72,0,0,0,6.12,2.48h49.47v-16h-33.5L867,184.75l62.08-19,23.79,56a8.73,8.73,0,0,0,7.88,5,8.84,8.84,0,0,0,5.31-1.76l28.66-21.6V466.83h17V203.47l28.66,21.6a8.81,8.81,0,0,0,7.48,1.49,8.36,8.36,0,0,0,5.72-4.76l23.85-56.15,62,19.09,16.18,282.09h-33.5v32H885.41v-8H800.48v-16h16.84a9,9,0,0,0,2.49-.31,8.06,8.06,0,0,0,6.14-8l-8.49-200-17,.64,8.14,191.68Zm117.51-24h-17v16h17Zm254.79,16h17v-16h-17Zm-24.62,16,8.14-191.68-17-.64L1089,466.83Zm-77.3-32h17v-16h-17Zm0-80h17v-16h-17Zm0-80h17v-16h-17Zm-127.23,192h17l-8.17-192.32-17,.64Zm-118-40h-17v16h17Z"/><path d="M732.68,74.83H704.79c-3.79,13.74-16.95,24-32.72,24a8.29,8.29,0,0,1-8.54-8v-48a8.28,8.28,0,0,1,8.54-8c15.77,0,28.93,10.25,32.72,24h27.89c3.8-13.76,17-24,32.77-24h25.48v16H765.45a17.15,17.15,0,0,0-14.63,8H868.57c3.8-13.76,17-24,32.77-24h25.48v16H901.34a17.15,17.15,0,0,0-14.63,8H962c3.8-13.76,17-24,32.77-24h25.48v16H994.76a17.12,17.12,0,0,0-14.62,8h151.72c3.79-13.75,17-24,32.72-24a8.29,8.29,0,0,1,8.54,8v48a8.3,8.3,0,0,1-8.54,8c-15.77,0-28.93-10.26-32.72-24H980.14a17.12,17.12,0,0,0,14.62,8h8.49a8.26,8.26,0,0,1,8.5,8v42l56.35,11.8-26,61.25-38.84-28.35-38.83,28.34-26-61.25,56.35-11.79v-34c-15.79,0-29-10.24-32.77-24H886.71a17.15,17.15,0,0,0,14.63,8h8.49a8.25,8.25,0,0,1,8.49,8v33.76l16,3.34L924.2,148.26l-65.6,20L845.05,136.4l56.29-11.78V98.83c-15.79,0-29-10.24-32.77-24H750.82a17.15,17.15,0,0,0,14.63,8h8.49a8.25,8.25,0,0,1,8.49,8v25.58L814,123l-3.68,15.61L773.94,131l-70.65,14.79-17.53,33h79.69v16h-12.9L740,362.83H706v-168H672a8.64,8.64,0,0,1-7.23-3.8,7.58,7.58,0,0,1-.37-7.78l25.48-48a8.48,8.48,0,0,1,5.76-4.23l69.79-14.61V98.83c-15.79,0-29-10.24-32.77-24Z"/><g class="cls-1"><path class="cls-2" d="M644.68,585.57l0,0,221.57-209a52.15,52.15,0,0,1,70.72,0l221.45,208.88.23.21a45.35,45.35,0,0,1-.1,66.61A51.16,51.16,0,0,1,1125.41,666c-.51,0-1,.07-1.54.07H1115V866.75a8.59,8.59,0,0,1-8.84,8.32H969.59c-8.79,0-15.92-6.71-15.92-15V739.24c0-13.9-12-25.17-26.72-25.17H875.28c-14.75,0-26.72,11.27-26.72,25.17V860.07c0,8.29-7.13,15-15.92,15H697.09a8.59,8.59,0,0,1-8.84-8.32V666.07h-8.18a51.27,51.27,0,0,1-35.37-13.81A45.38,45.38,0,0,1,644.68,585.57Z"/></g></g></g></svg>